ffmpeg started on 2025-05-12 at 17:06:29
Report written to "D:\Convert\FFMetrics\reports\ssim_report-6.txt"
Log level: 32
Command line:
ffmpeg -hide_banner -nostdin -i "G:\\\xc0\xed\xe8\xec\xe5\\\xce\xed\xe3\xee\xe8\xed\xe3\xe8\\!_35_\xcb\xe5\xf2\xee_2024\\DreamCast\\\xce\xef\xe5\xf0\xe0\xf6\xe8\xff - \xd1\xe5\xec\xe5\xe9\xea\xe0 \xa8\xe4\xe7\xe0\xea\xf3\xf0\xe0\\[DC] Yozakura-san Chi no Daisakusen - 05_Telegram_HEVC.mkv" -i "G:\\\xc0\xed\xe8\xec\xe5\\\xce\xed\xe3\xee\xe8\xed\xe3\xe8\\!_35_\xcb\xe5\xf2\xee_2024\\DreamCast\\\xce\xef\xe5\xf0\xe0\xf6\xe8\xff - \xd1\xe5\xec\xe5\xe9\xea\xe0 \xa8\xe4\xe7\xe0\xea\xf3\xf0\xe0\\[DC] Yozakura-san Chi no Daisakusen - 05_Telegram.mp4" -lavfi "[0:v]settb=AVTB,setpts=PTS-STARTPTS,format=pix_fmts=yuv420p10,fps=24000/1001,scale=1920:1080:flags=bicubic[main];[1:v]settb=AVTB,setpts=PTS-STARTPTS,format=pix_fmts=yuv420p,fps=24000/1001,scale=1920:1080:flags=bicubic[ref];[main][ref]ssim=eof_action=endall:stats_file='D\\:/Convert/FFMetrics/logs/ssim_logfile-6.txt'" -f null -
Input #0, matroska,webm, from 'G:\Аниме\Онгоинги\!_35_Лето_2024\DreamCast\Операция - Семейка Ёдзакура\[DC] Yozakura-san Chi no Daisakusen - 05_Telegram_HEVC.mkv':
  Metadata:
    COMPATIBLE_BRANDS: isomiso2avc1mp41
    MAJOR_BRAND     : isom
    MINOR_VERSION   : 512
    ENCODER         : Lavf61.7.100
  Duration: 00:24:04.69, start: -0.021000, bitrate: 1241 kb/s
  Stream #0:0: Video: hevc (Main 10), yuv420p10le(tv, bt709, progressive), 1920x1080 [SAR 1:1 DAR 16:9], 23.98 fps, 23.98 tbr, 1k tbn (default)
      Metadata:
        HANDLER_NAME    : VideoHandler
        VENDOR_ID       : [0][0][0][0]
        ENCODER         : Lavc61.19.100 libx265
        BPS             : 1043838
        DURATION        : 00:24:04.526708333
        NUMBER_OF_FRAMES: 34634
        NUMBER_OF_BYTES : 188481516
        _STATISTICS_WRITING_APP: mkvpropedit v66.0.0 ('Josie') 64-bit
        _STATISTICS_WRITING_DATE_UTC: 2025-05-08 13:12:03
        _STATISTICS_TAGS: BPS DURATION NUMBER_OF_FRAMES NUMBER_OF_BYTES
  Stream #0:1: Audio: aac (LC), 48000 Hz, stereo, fltp (default)
      Metadata:
        HANDLER_NAME    : SoundHandler
        VENDOR_ID       : [0][0][0][0]
        ENCODER         : Lavc61.19.100 aac
        BPS             : 193528
        DURATION        : 00:24:04.693000000
        NUMBER_OF_FRAMES: 67721
        NUMBER_OF_BYTES : 34948673
        _STATISTICS_WRITING_APP: mkvpropedit v66.0.0 ('Josie') 64-bit
        _STATISTICS_WRITING_DATE_UTC: 2025-05-08 13:12:03
        _STATISTICS_TAGS: BPS DURATION NUMBER_OF_FRAMES NUMBER_OF_BYTES
Input #1, mov,mp4,m4a,3gp,3g2,mj2, from 'G:\Аниме\Онгоинги\!_35_Лето_2024\DreamCast\Операция - Семейка Ёдзакура\[DC] Yozakura-san Chi no Daisakusen - 05_Telegram.mp4':
  Metadata:
    major_brand     : isom
    minor_version   : 512
    compatible_brands: isomiso2avc1mp41
    encoder         : Lavf60.16.100
  Duration: 00:24:04.65, start: 0.000000, bitrate: 3604 kb/s
  Stream #1:0[0x1](und): Video: h264 (High) (avc1 / 0x31637661), yuv420p(tv, bt709, progressive), 1920x1080 [SAR 1:1 DAR 16:9], 3457 kb/s, 23.98 fps, 23.98 tbr, 24k tbn (default)
      Metadata:
        handler_name    : VideoHandler
        vendor_id       : [0][0][0][0]
        encoder         : Lavc60.31.102 h264_qsv
  Stream #1:1[0x2](und): Audio: aac (HE-AACv2) (mp4a / 0x6134706D), 48000 Hz, stereo, fltp, 144 kb/s (default)
      Metadata:
        handler_name    : SoundHandler
        vendor_id       : [0][0][0][0]
Stream mapping:
  Stream #0:0 (hevc) -> settb:default
  Stream #1:0 (h264) -> settb:default
  ssim:default -> Stream #0:0 (wrapped_avframe)
  Stream #0:1 -> #0:1 (aac (native) -> pcm_s16le (native))
Output #0, null, to 'pipe:':
  Metadata:
    COMPATIBLE_BRANDS: isomiso2avc1mp41
    MAJOR_BRAND     : isom
    MINOR_VERSION   : 512
    encoder         : Lavf61.7.100
  Stream #0:0: Video: wrapped_avframe, yuv420p10le(tv, bt709, progressive), 1920x1080 [SAR 1:1 DAR 16:9], q=2-31, 200 kb/s, 23.98 fps, 23.98 tbn
      Metadata:
        encoder         : Lavc61.19.100 wrapped_avframe
  Stream #0:1: Audio: pcm_s16le, 48000 Hz, stereo, s16, 1536 kb/s (default)
      Metadata:
        HANDLER_NAME    : SoundHandler
        VENDOR_ID       : [0][0][0][0]
        _STATISTICS_TAGS: BPS DURATION NUMBER_OF_FRAMES NUMBER_OF_BYTES
        BPS             : 193528
        DURATION        : 00:24:04.693000000
        NUMBER_OF_FRAMES: 67721
        NUMBER_OF_BYTES : 34948673
        _STATISTICS_WRITING_APP: mkvpropedit v66.0.0 ('Josie') 64-bit
        _STATISTICS_WRITING_DATE_UTC: 2025-05-08 13:12:03
        encoder         : Lavc61.19.100 pcm_s16le
frame=  158 fps=0.0 q=-0.0 size=N/A time=00:00:06.58 bitrate=N/A speed=12.8x    frame=  402 fps=388 q=-0.0 size=N/A time=00:00:16.76 bitrate=N/A speed=16.2x    frame=  628 fps=407 q=-0.0 size=N/A time=00:00:26.19 bitrate=N/A speed=  17x    frame=  830 fps=402 q=-0.0 size=N/A time=00:00:34.61 bitrate=N/A speed=16.7x    frame= 1067 fps=414 q=-0.0 size=N/A time=00:00:44.50 bitrate=N/A speed=17.3x    frame= 1304 fps=421 q=-0.0 size=N/A time=00:00:54.38 bitrate=N/A speed=17.6x    frame= 1542 fps=428 q=-0.0 size=N/A time=00:01:04.31 bitrate=N/A speed=17.9x    frame= 1731 fps=419 q=-0.0 size=N/A time=00:01:12.19 bitrate=N/A speed=17.5x    frame= 1949 fps=421 q=-0.0 size=N/A time=00:01:21.28 bitrate=N/A speed=17.5x    frame= 2151 fps=417 q=-0.0 size=N/A time=00:01:29.71 bitrate=N/A speed=17.4x    frame= 2329 fps=411 q=-0.0 size=N/A time=00:01:37.13 bitrate=N/A speed=17.1x    frame= 2503 fps=404 q=-0.0 size=N/A time=00:01:44.39 bitrate=N/A speed=16.9x    frame= 2663 fps=397 q=-0.0 size=N/A time=00:01:51.06 bitrate=N/A speed=16.6x    frame= 2830 fps=392 q=-0.0 size=N/A time=00:01:58.03 bitrate=N/A speed=16.3x    frame= 2995 fps=387 q=-0.0 size=N/A time=00:02:04.91 bitrate=N/A speed=16.2x    frame= 3198 fps=387 q=-0.0 size=N/A time=00:02:13.38 bitrate=N/A speed=16.2x    frame= 3385 fps=386 q=-0.0 size=N/A time=00:02:21.18 bitrate=N/A speed=16.1x    frame= 3567 fps=384 q=-0.0 size=N/A time=00:02:28.77 bitrate=N/A speed=  16x    frame= 3809 fps=389 q=-0.0 size=N/A time=00:02:38.86 bitrate=N/A speed=16.2x    frame= 4080 fps=395 q=-0.0 size=N/A time=00:02:50.17 bitrate=N/A speed=16.5x    frame= 4347 fps=401 q=-0.0 size=N/A time=00:03:01.30 bitrate=N/A speed=16.7x    frame= 4570 fps=403 q=-0.0 size=N/A time=00:03:10.60 bitrate=N/A speed=16.8x    frame= 4855 fps=409 q=-0.0 size=N/A time=00:03:22.49 bitrate=N/A speed=17.1x    frame= 5129 fps=415 q=-0.0 size=N/A time=00:03:33.92 bitrate=N/A speed=17.3x    frame= 5402 fps=419 q=-0.0 size=N/A time=00:03:45.30 bitrate=N/A speed=17.5x    frame= 5640 fps=421 q=-0.0 size=N/A time=00:03:55.23 bitrate=N/A speed=17.6x    frame= 5904 fps=424 q=-0.0 size=N/A time=00:04:06.24 bitrate=N/A speed=17.7x    frame= 6152 fps=426 q=-0.0 size=N/A time=00:04:16.58 bitrate=N/A speed=17.8x    frame= 6399 fps=428 q=-0.0 size=N/A time=00:04:26.89 bitrate=N/A speed=17.8x    frame= 6640 fps=429 q=-0.0 size=N/A time=00:04:36.94 bitrate=N/A speed=17.9x    frame= 6899 fps=432 q=-0.0 size=N/A time=00:04:47.74 bitrate=N/A speed=  18x    frame= 7167 fps=434 q=-0.0 size=N/A time=00:04:58.92 bitrate=N/A speed=18.1x    frame= 7412 fps=436 q=-0.0 size=N/A time=00:05:09.14 bitrate=N/A speed=18.2x    frame= 7671 fps=437 q=-0.0 size=N/A time=00:05:19.94 bitrate=N/A speed=18.2x    frame= 7920 fps=439 q=-0.0 size=N/A time=00:05:30.33 bitrate=N/A speed=18.3x    frame= 8168 fps=440 q=-0.0 size=N/A time=00:05:40.67 bitrate=N/A speed=18.3x    frame= 8437 fps=442 q=-0.0 size=N/A time=00:05:51.89 bitrate=N/A speed=18.4x    frame= 8705 fps=444 q=-0.0 size=N/A time=00:06:03.07 bitrate=N/A speed=18.5x    frame= 8983 fps=447 q=-0.0 size=N/A time=00:06:14.66 bitrate=N/A speed=18.6x    frame= 9263 fps=449 q=-0.0 size=N/A time=00:06:26.34 bitrate=N/A speed=18.7x    frame= 9524 fps=450 q=-0.0 size=N/A time=00:06:37.23 bitrate=N/A speed=18.8x    frame= 9795 fps=452 q=-0.0 size=N/A time=00:06:48.53 bitrate=N/A speed=18.8x    frame=10070 fps=454 q=-0.0 size=N/A time=00:07:00.00 bitrate=N/A speed=18.9x    frame=10352 fps=456 q=-0.0 size=N/A time=00:07:11.76 bitrate=N/A speed=  19x    frame=10636 fps=458 q=-0.0 size=N/A time=00:07:23.60 bitrate=N/A speed=19.1x    frame=10897 fps=459 q=-0.0 size=N/A time=00:07:34.49 bitrate=N/A speed=19.2x    frame=11176 fps=461 q=-0.0 size=N/A time=00:07:46.13 bitrate=N/A speed=19.2x    frame=11456 fps=462 q=-0.0 size=N/A time=00:07:57.81 bitrate=N/A speed=19.3x    frame=11712 fps=463 q=-0.0 size=N/A time=00:08:08.48 bitrate=N/A speed=19.3x    frame=11949 fps=463 q=-0.0 size=N/A time=00:08:18.37 bitrate=N/A speed=19.3x    frame=12198 fps=464 q=-0.0 size=N/A time=00:08:28.75 bitrate=N/A speed=19.3x    frame=12458 fps=464 q=-0.0 size=N/A time=00:08:39.60 bitrate=N/A speed=19.4x    frame=12709 fps=465 q=-0.0 size=N/A time=00:08:50.07 bitrate=N/A speed=19.4x    frame=12972 fps=466 q=-0.0 size=N/A time=00:09:01.04 bitrate=N/A speed=19.4x    frame=13241 fps=467 q=-0.0 size=N/A time=00:09:12.26 bitrate=N/A speed=19.5x    frame=13509 fps=468 q=-0.0 size=N/A time=00:09:23.43 bitrate=N/A speed=19.5x    frame=13761 fps=468 q=-0.0 size=N/A time=00:09:33.94 bitrate=N/A speed=19.5x    frame=14004 fps=468 q=-0.0 size=N/A time=00:09:44.08 bitrate=N/A speed=19.5x    frame=14231 fps=467 q=-0.0 size=N/A time=00:09:53.55 bitrate=N/A speed=19.5x    frame=14455 fps=467 q=-0.0 size=N/A time=00:10:02.89 bitrate=N/A speed=19.5x    frame=14702 fps=467 q=-0.0 size=N/A time=00:10:13.19 bitrate=N/A speed=19.5x    frame=14930 fps=467 q=-0.0 size=N/A time=00:10:22.70 bitrate=N/A speed=19.5x    frame=15140 fps=466 q=-0.0 size=N/A time=00:10:31.46 bitrate=N/A speed=19.4x    frame=15376 fps=466 q=-0.0 size=N/A time=00:10:41.30 bitrate=N/A speed=19.4x    frame=15613 fps=466 q=-0.0 size=N/A time=00:10:51.19 bitrate=N/A speed=19.4x    frame=15825 fps=465 q=-0.0 size=N/A time=00:11:00.03 bitrate=N/A speed=19.4x    frame=15978 fps=462 q=-0.0 size=N/A time=00:11:06.41 bitrate=N/A speed=19.3x    frame=16173 fps=461 q=-0.0 size=N/A time=00:11:14.54 bitrate=N/A speed=19.2x    frame=16411 fps=461 q=-0.0 size=N/A time=00:11:24.47 bitrate=N/A speed=19.2x    frame=16682 fps=462 q=-0.0 size=N/A time=00:11:35.77 bitrate=N/A speed=19.3x    frame=16936 fps=462 q=-0.0 size=N/A time=00:11:46.37 bitrate=N/A speed=19.3x    frame=17213 fps=463 q=-0.0 size=N/A time=00:11:57.92 bitrate=N/A speed=19.3x    frame=17495 fps=465 q=-0.0 size=N/A time=00:12:09.72 bitrate=N/A speed=19.4x    frame=17761 fps=465 q=-0.0 size=N/A time=00:12:20.78 bitrate=N/A speed=19.4x    frame=18023 fps=466 q=-0.0 size=N/A time=00:12:31.70 bitrate=N/A speed=19.4x    frame=18305 fps=467 q=-0.0 size=N/A time=00:12:43.47 bitrate=N/A speed=19.5x    frame=18555 fps=467 q=-0.0 size=N/A time=00:12:53.89 bitrate=N/A speed=19.5x    frame=18776 fps=467 q=-0.0 size=N/A time=00:13:03.11 bitrate=N/A speed=19.5x    frame=19035 fps=467 q=-0.0 size=N/A time=00:13:13.91 bitrate=N/A speed=19.5x    frame=19291 fps=467 q=-0.0 size=N/A time=00:13:24.59 bitrate=N/A speed=19.5x    frame=19527 fps=467 q=-0.0 size=N/A time=00:13:34.43 bitrate=N/A speed=19.5x    frame=19793 fps=468 q=-0.0 size=N/A time=00:13:45.53 bitrate=N/A speed=19.5x    frame=20043 fps=468 q=-0.0 size=N/A time=00:13:55.96 bitrate=N/A speed=19.5x    frame=20292 fps=468 q=-0.0 size=N/A time=00:14:06.34 bitrate=N/A speed=19.5x    frame=20553 fps=469 q=-0.0 size=N/A time=00:14:17.23 bitrate=N/A speed=19.5x    frame=20816 fps=469 q=-0.0 size=N/A time=00:14:28.20 bitrate=N/A speed=19.6x    frame=21077 fps=470 q=-0.0 size=N/A time=00:14:39.08 bitrate=N/A speed=19.6x    frame=21336 fps=470 q=-0.0 size=N/A time=00:14:49.88 bitrate=N/A speed=19.6x    frame=21584 fps=470 q=-0.0 size=N/A time=00:15:00.23 bitrate=N/A speed=19.6x    frame=21775 fps=469 q=-0.0 size=N/A time=00:15:08.19 bitrate=N/A speed=19.6x    frame=22035 fps=470 q=-0.0 size=N/A time=00:15:19.04 bitrate=N/A speed=19.6x    frame=22246 fps=469 q=-0.0 size=N/A time=00:15:27.84 bitrate=N/A speed=19.6x    frame=22397 fps=467 q=-0.0 size=N/A time=00:15:34.14 bitrate=N/A speed=19.5x    frame=22549 fps=465 q=-0.0 size=N/A time=00:15:40.48 bitrate=N/A speed=19.4x    frame=22814 fps=466 q=-0.0 size=N/A time=00:15:51.53 bitrate=N/A speed=19.4x    frame=23034 fps=465 q=-0.0 size=N/A time=00:16:00.70 bitrate=N/A speed=19.4x    frame=23228 fps=464 q=-0.0 size=N/A time=00:16:08.80 bitrate=N/A speed=19.4x    frame=23450 fps=464 q=-0.0 size=N/A time=00:16:18.06 bitrate=N/A speed=19.3x    frame=23634 fps=463 q=-0.0 size=N/A time=00:16:25.73 bitrate=N/A speed=19.3x    frame=23785 fps=461 q=-0.0 size=N/A time=00:16:32.03 bitrate=N/A speed=19.2x    frame=23913 fps=459 q=-0.0 size=N/A time=00:16:37.37 bitrate=N/A speed=19.1x    frame=24052 fps=457 q=-0.0 size=N/A time=00:16:43.16 bitrate=N/A speed=19.1x    frame=24216 fps=456 q=-0.0 size=N/A time=00:16:50.00 bitrate=N/A speed=  19x    frame=24470 fps=456 q=-0.0 size=N/A time=00:17:00.60 bitrate=N/A speed=  19x    frame=24727 fps=456 q=-0.0 size=N/A time=00:17:11.32 bitrate=N/A speed=  19x    frame=24951 fps=456 q=-0.0 size=N/A time=00:17:20.66 bitrate=N/A speed=  19x    frame=25186 fps=456 q=-0.0 size=N/A time=00:17:30.46 bitrate=N/A speed=  19x    frame=25416 fps=456 q=-0.0 size=N/A time=00:17:40.05 bitrate=N/A speed=  19x    frame=25665 fps=456 q=-0.0 size=N/A time=00:17:50.44 bitrate=N/A speed=  19x    frame=25915 fps=456 q=-0.0 size=N/A time=00:18:00.87 bitrate=N/A speed=  19x    frame=26163 fps=457 q=-0.0 size=N/A time=00:18:11.21 bitrate=N/A speed=  19x    frame=26425 fps=457 q=-0.0 size=N/A time=00:18:22.14 bitrate=N/A speed=19.1x    frame=26690 fps=458 q=-0.0 size=N/A time=00:18:33.19 bitrate=N/A speed=19.1x    frame=26942 fps=458 q=-0.0 size=N/A time=00:18:43.70 bitrate=N/A speed=19.1x    frame=27197 fps=458 q=-0.0 size=N/A time=00:18:54.34 bitrate=N/A speed=19.1x    frame=27434 fps=458 q=-0.0 size=N/A time=00:19:04.22 bitrate=N/A speed=19.1x    frame=27605 fps=457 q=-0.0 size=N/A time=00:19:11.35 bitrate=N/A speed=19.1x    frame=27769 fps=456 q=-0.0 size=N/A time=00:19:18.19 bitrate=N/A speed=  19x    frame=27994 fps=456 q=-0.0 size=N/A time=00:19:27.58 bitrate=N/A speed=  19x    frame=28198 fps=455 q=-0.0 size=N/A time=00:19:36.09 bitrate=N/A speed=  19x    frame=28403 fps=455 q=-0.0 size=N/A time=00:19:44.64 bitrate=N/A speed=  19x    frame=28627 fps=455 q=-0.0 size=N/A time=00:19:53.98 bitrate=N/A speed=  19x    frame=28871 fps=455 q=-0.0 size=N/A time=00:20:04.16 bitrate=N/A speed=  19x    frame=29114 fps=455 q=-0.0 size=N/A time=00:20:14.29 bitrate=N/A speed=  19x    frame=29369 fps=455 q=-0.0 size=N/A time=00:20:24.93 bitrate=N/A speed=  19x    frame=29646 fps=456 q=-0.0 size=N/A time=00:20:36.48 bitrate=N/A speed=  19x    frame=29912 fps=457 q=-0.0 size=N/A time=00:20:47.57 bitrate=N/A speed=  19x    frame=30158 fps=457 q=-0.0 size=N/A time=00:20:57.83 bitrate=N/A speed=  19x    frame=30420 fps=457 q=-0.0 size=N/A time=00:21:08.76 bitrate=N/A speed=19.1x    frame=30687 fps=457 q=-0.0 size=N/A time=00:21:19.90 bitrate=N/A speed=19.1x    frame=30954 fps=458 q=-0.0 size=N/A time=00:21:31.03 bitrate=N/A speed=19.1x    frame=31214 fps=458 q=-0.0 size=N/A time=00:21:41.88 bitrate=N/A speed=19.1x    frame=31476 fps=459 q=-0.0 size=N/A time=00:21:52.81 bitrate=N/A speed=19.1x    frame=31735 fps=459 q=-0.0 size=N/A time=00:22:03.61 bitrate=N/A speed=19.1x    frame=31974 fps=459 q=-0.0 size=N/A time=00:22:13.58 bitrate=N/A speed=19.1x    frame=32210 fps=459 q=-0.0 size=N/A time=00:22:23.42 bitrate=N/A speed=19.1x    frame=32427 fps=459 q=-0.0 size=N/A time=00:22:32.47 bitrate=N/A speed=19.1x    frame=32682 fps=459 q=-0.0 size=N/A time=00:22:43.11 bitrate=N/A speed=19.1x    frame=32913 fps=459 q=-0.0 size=N/A time=00:22:52.74 bitrate=N/A speed=19.1x    frame=33153 fps=459 q=-0.0 size=N/A time=00:23:02.75 bitrate=N/A speed=19.1x    frame=33377 fps=459 q=-0.0 size=N/A time=00:23:12.09 bitrate=N/A speed=19.1x    frame=33566 fps=458 q=-0.0 size=N/A time=00:23:19.98 bitrate=N/A speed=19.1x    frame=33744 fps=457 q=-0.0 size=N/A time=00:23:27.40 bitrate=N/A speed=19.1x    frame=33915 fps=456 q=-0.0 size=N/A time=00:23:34.53 bitrate=N/A speed=  19x    frame=34132 fps=456 q=-0.0 size=N/A time=00:23:43.58 bitrate=N/A speed=  19x    frame=34299 fps=455 q=-0.0 size=N/A time=00:23:50.55 bitrate=N/A speed=  19x    frame=34530 fps=455 q=-0.0 size=N/A time=00:24:00.18 bitrate=N/A speed=  19x    [Parsed_ssim_10 @ 000002a5d3ed9800] SSIM Y:0.995148 (23.140856) U:0.993897 (22.144517) V:0.993699 (22.006215) All:0.994698 (22.755694)
[out#0/null @ 000002a5cc46eec0] video:14882KiB audio:270884KiB subtitle:0KiB other streams:0KiB global headers:0KiB muxing overhead: unknown
frame=34634 fps=456 q=-0.0 Lsize=N/A time=00:24:04.52 bitrate=N/A speed=  19x    
